<svg width="1235" height="651" xmlns="http://www.w3.org/2000/svg"><g><path d="M-82.48465734533966,-44.700088603422046L-121.36443614959717,645.4962388984859L-77.30125296860933,39.59394025616348Z" fill="#fff4b7" stroke="#fff4b7"></path><path d="M-82.48465734533966,-44.700088603422046L-77.30125296860933,39.59394025616348L53.436164231970906,-134.84383709728718Z" fill="#ffffee" stroke="#ffffee"></path><path d="M53.436164231970906,-134.84383709728718L-77.30125296860933,39.59394025616348L17.068341923877597,116.91354425624013Z" fill="#ffffe7" stroke="#ffffe7"></path><path d="M53.436164231970906,-134.84383709728718L17.068341923877597,116.91354425624013L259.72166396677494,-68.00947319716215Z" fill="#fff8dd" stroke="#fff8dd"></path><path d="M53.436164231970906,-134.84383709728718L259.72166396677494,-68.00947319716215L433.8883487507701,-59.31125004775822Z" fill="#fff0ce" stroke="#fff0ce"></path><path d="M53.436164231970906,-134.84383709728718L433.8883487507701,-59.31125004775822L699.8787465132773,-119.53081715852022Z" fill="#ffe3b9" stroke="#ffe3b9"></path><path d="M53.436164231970906,-134.84383709728718L699.8787465132773,-119.53081715852022L1091.8596138060093,-127.91033335961401Z" fill="#ffcd95" stroke="#ffcd95"></path><path d="M259.72166396677494,-68.00947319716215L17.068341923877597,116.91354425624013L258.93491805531085,123.05116857402027Z" fill="#fff4c6" stroke="#fff4c6"></path><path d="M259.72166396677494,-68.00947319716215L258.93491805531085,123.05116857402027L388.6556975450367,127.86314768716693Z" fill="#ffedb7" stroke="#ffedb7"></path><path d="M259.72166396677494,-68.00947319716215L388.6556975450367,127.86314768716693L433.8883487507701,-59.31125004775822Z" fill="#ffe7bd" stroke="#ffe7bd"></path><path d="M433.8883487507701,-59.31125004775822L388.6556975450367,127.86314768716693L502.8908113203943,130.70799655281007Z" fill="#ffde9f" stroke="#ffde9f"></path><path d="M433.8883487507701,-59.31125004775822L502.8908113203943,130.70799655281007L553.6802525538951,-27.735124183818698Z" fill="#ffd9a3" stroke="#ffd9a3"></path><path d="M433.8883487507701,-59.31125004775822L553.6802525538951,-27.735124183818698L699.8787465132773,-119.53081715852022Z" fill="#ffd29d" stroke="#ffd29d"></path><path d="M553.6802525538951,-27.735124183818698L502.8908113203943,130.70799655281007L644.5329203736037,31.793351490050554Z" fill="#ffd190" stroke="#ffd190"></path><path d="M553.6802525538951,-27.735124183818698L644.5329203736037,31.793351490050554L699.8787465132773,-119.53081715852022Z" fill="#feca93" stroke="#feca93"></path><path d="M699.8787465132773,-119.53081715852022L644.5329203736037,31.793351490050554L784.4619826320559,60.472137965261936Z" fill="#f7c18e" stroke="#f7c18e"></path><path d="M699.8787465132773,-119.53081715852022L784.4619826320559,60.472137965261936L849.135378068313,-49.422792121768Z" fill="#f2b88a" stroke="#f2b88a"></path><path d="M699.8787465132773,-119.53081715852022L849.135378068313,-49.422792121768L1091.8596138060093,-127.91033335961401Z" fill="#e9ab84" stroke="#e9ab84"></path><path d="M849.135378068313,-49.422792121768L784.4619826320559,60.472137965261936L924.353946307674,55.547541892156005Z" fill="#ecaf7f" stroke="#ecaf7f"></path><path d="M849.135378068313,-49.422792121768L924.353946307674,55.547541892156005L951.8481160048395,-18.452690122649074Z" fill="#e7a882" stroke="#e7a882"></path><path d="M849.135378068313,-49.422792121768L951.8481160048395,-18.452690122649074L1091.8596138060093,-127.91033335961401Z" fill="#e3a180" stroke="#e3a180"></path><path d="M951.8481160048395,-18.452690122649074L924.353946307674,55.547541892156005L1100.6558310706168,57.27286350913346Z" fill="#e09e77" stroke="#e09e77"></path><path d="M951.8481160048395,-18.452690122649074L1100.6558310706168,57.27286350913346L1091.8596138060093,-127.91033335961401Z" fill="#dc9780" stroke="#dc9780"></path><path d="M1091.8596138060093,-127.91033335961401L1100.6558310706168,57.27286350913346L1216.2377841956913,51.51896039955318Z" fill="#d58c80" stroke="#d58c80"></path><path d="M1091.8596138060093,-127.91033335961401L1216.2377841956913,51.51896039955318L1261.746242372319,-121.72742681577802Z" fill="#d08580" stroke="#d08580"></path><path d="M1261.746242372319,-121.72742681577802L1216.2377841956913,51.51896039955318L1367.8682481497526,-54.719865722581744Z" fill="#c98080" stroke="#c98080"></path><path d="M1367.8682481497526,-54.719865722581744L1216.2377841956913,51.51896039955318L1468.8956708740443,81.02881729602814Z" fill="#c38078" stroke="#c38078"></path><path d="M-77.30125296860933,39.59394025616348L-121.36443614959717,645.4962388984859L-59.4580068346113,202.2327522933483Z" fill="#ffe198" stroke="#ffe198"></path><path d="M-77.30125296860933,39.59394025616348L-59.4580068346113,202.2327522933483L17.068341923877597,116.91354425624013Z" fill="#ffffce" stroke="#ffffce"></path><path d="M17.068341923877597,116.91354425624013L-59.4580068346113,202.2327522933483L108.57046108692884,196.70434045605361Z" fill="#fffcb9" stroke="#fffcb9"></path><path d="M17.068341923877597,116.91354425624013L108.57046108692884,196.70434045605361L258.93491805531085,123.05116857402027Z" fill="#fff7b5" stroke="#fff7b5"></path><path d="M258.93491805531085,123.05116857402027L108.57046108692884,196.70434045605361L257.832268550992,271.24064474366605Z" fill="#ffeb9b" stroke="#ffeb9b"></path><path d="M258.93491805531085,123.05116857402027L257.832268550992,271.24064474366605L417.533191870898,197.0751234702766Z" fill="#ffe48f" stroke="#ffe48f"></path><path d="M258.93491805531085,123.05116857402027L417.533191870898,197.0751234702766L388.6556975450367,127.86314768716693Z" fill="#ffe798" stroke="#ffe798"></path><path d="M388.6556975450367,127.86314768716693L417.533191870898,197.0751234702766L502.8908113203943,130.70799655281007Z" fill="#ffdf8a" stroke="#ffdf8a"></path><path d="M502.8908113203943,130.70799655281007L417.533191870898,197.0751234702766L512.4809932149947,282.24264370277524Z" fill="#ffd271" stroke="#ffd271"></path><path d="M502.8908113203943,130.70799655281007L512.4809932149947,282.24264370277524L639.1901973914355,262.7212043199688Z" fill="#ffc55d" stroke="#ffc55d"></path><path d="M502.8908113203943,130.70799655281007L639.1901973914355,262.7212043199688L644.5329203736037,31.793351490050554Z" fill="#ffcf72" stroke="#ffcf72"></path><path d="M644.5329203736037,31.793351490050554L639.1901973914355,262.7212043199688L784.4619826320559,60.472137965261936Z" fill="#f9c370" stroke="#f9c370"></path><path d="M784.4619826320559,60.472137965261936L639.1901973914355,262.7212043199688L804.30902576074,253.64383569918573Z" fill="#f5b656" stroke="#f5b656"></path><path d="M784.4619826320559,60.472137965261936L804.30902576074,253.64383569918573L942.9436772502959,171.95489983074367Z" fill="#ecb05b" stroke="#ecb05b"></path><path d="M784.4619826320559,60.472137965261936L942.9436772502959,171.95489983074367L924.353946307674,55.547541892156005Z" fill="#e9ab69" stroke="#e9ab69"></path><path d="M924.353946307674,55.547541892156005L942.9436772502959,171.95489983074367L1100.6558310706168,57.27286350913346Z" fill="#e19e66" stroke="#e19e66"></path><path d="M1100.6558310706168,57.27286350913346L942.9436772502959,171.95489983074367L1069.5508806221187,272.21281880512834Z" fill="#dd9753" stroke="#dd9753"></path><path d="M1100.6558310706168,57.27286350913346L1069.5508806221187,272.21281880512834L1216.2377841956913,51.51896039955318Z" fill="#d58c5e" stroke="#d58c5e"></path><path d="M1216.2377841956913,51.51896039955318L1069.5508806221187,272.21281880512834L1299.574539558962,232.82521854154766Z" fill="#d07f4c" stroke="#d07f4c"></path><path d="M1216.2377841956913,51.51896039955318L1299.574539558962,232.82521854154766L1378.3006799127907,195.62868718989193Z" fill="#c88055" stroke="#c88055"></path><path d="M1216.2377841956913,51.51896039955318L1378.3006799127907,195.62868718989193L1468.8956708740443,81.02881729602814Z" fill="#c38063" stroke="#c38063"></path><path d="M1468.8956708740443,81.02881729602814L1378.3006799127907,195.62868718989193L1366.6938377078623,317.89332423359156Z" fill="#bf7848" stroke="#bf7848"></path><path d="M1468.8956708740443,81.02881729602814L1366.6938377078623,317.89332423359156L1437.949637034908,521.6938915941864Z" fill="#bd5f20" stroke="#bd5f20"></path><path d="M1468.8956708740443,81.02881729602814L1437.949637034908,521.6938915941864L1468.12421053648,785.8577393833548Z" fill="#b63413" stroke="#b63413"></path><path d="M-59.4580068346113,202.2327522933483L-121.36443614959717,645.4962388984859L-69.52410388737917,487.8041676711291Z" fill="#fbb987" stroke="#fbb987"></path><path d="M-59.4580068346113,202.2327522933483L-69.52410388737917,487.8041676711291L-24.90068005397916,338.01127393729985Z" fill="#ffd688" stroke="#ffd688"></path><path d="M-59.4580068346113,202.2327522933483L-24.90068005397916,338.01127393729985L43.22194098494947,349.40354470163584Z" fill="#ffe18f" stroke="#ffe18f"></path><path d="M-59.4580068346113,202.2327522933483L43.22194098494947,349.40354470163584L108.57046108692884,196.70434045605361Z" fill="#ffea9b" stroke="#ffea9b"></path><path d="M108.57046108692884,196.70434045605361L43.22194098494947,349.40354470163584L237.97329554334283,320.630593970418Z" fill="#ffdb82" stroke="#ffdb82"></path><path d="M108.57046108692884,196.70434045605361L237.97329554334283,320.630593970418L257.832268550992,271.24064474366605Z" fill="#ffdc83" stroke="#ffdc83"></path><path d="M257.832268550992,271.24064474366605L237.97329554334283,320.630593970418L381.34893452748656,338.4456621017307Z" fill="#ffcc67" stroke="#ffcc67"></path><path d="M257.832268550992,271.24064474366605L381.34893452748656,338.4456621017307L417.533191870898,197.0751234702766Z" fill="#ffd06e" stroke="#ffd06e"></path><path d="M417.533191870898,197.0751234702766L381.34893452748656,338.4456621017307L512.4809932149947,282.24264370277524Z" fill="#ffc65e" stroke="#ffc65e"></path><path d="M512.4809932149947,282.24264370277524L381.34893452748656,338.4456621017307L490.7722152583301,375.02525922842324Z" fill="#ffb646" stroke="#ffb646"></path><path d="M512.4809932149947,282.24264370277524L490.7722152583301,375.02525922842324L637.151989415288,323.5942921601236Z" fill="#ffaf39" stroke="#ffaf39"></path><path d="M512.4809932149947,282.24264370277524L637.151989415288,323.5942921601236L639.1901973914355,262.7212043199688Z" fill="#ffb23e" stroke="#ffb23e"></path><path d="M639.1901973914355,262.7212043199688L637.151989415288,323.5942921601236L804.30902576074,253.64383569918573Z" fill="#f9a839" stroke="#f9a839"></path><path d="M804.30902576074,253.64383569918573L637.151989415288,323.5942921601236L833.618307095021,394.80135885067284Z" fill="#f39725" stroke="#f39725"></path><path d="M804.30902576074,253.64383569918573L833.618307095021,394.80135885067284L1018.2696159090847,350.1668150257319Z" fill="#e9841c" stroke="#e9841c"></path><path d="M804.30902576074,253.64383569918573L1018.2696159090847,350.1668150257319L942.9436772502959,171.95489983074367Z" fill="#e69133" stroke="#e69133"></path><path d="M942.9436772502959,171.95489983074367L1018.2696159090847,350.1668150257319L1069.5508806221187,272.21281880512834Z" fill="#df842f" stroke="#df842f"></path><path d="M1069.5508806221187,272.21281880512834L1018.2696159090847,350.1668150257319L1071.2447312660515,419.5270001795143Z" fill="#da6b18" stroke="#da6b18"></path><path d="M1069.5508806221187,272.21281880512834L1071.2447312660515,419.5270001795143L1295.894838804379,363.22211964055896Z" fill="#d35e18" stroke="#d35e18"></path><path d="M1069.5508806221187,272.21281880512834L1295.894838804379,363.22211964055896L1299.574539558962,232.82521854154766Z" fill="#ce6426" stroke="#ce6426"></path><path d="M1299.574539558962,232.82521854154766L1295.894838804379,363.22211964055896L1366.6938377078623,317.89332423359156Z" fill="#c66020" stroke="#c66020"></path><path d="M1299.574539558962,232.82521854154766L1366.6938377078623,317.89332423359156L1378.3006799127907,195.62868718989193Z" fill="#c46c35" stroke="#c46c35"></path><path d="M-24.90068005397916,338.01127393729985L-69.52410388737917,487.8041676711291L43.22194098494947,349.40354470163584Z" fill="#fdc882" stroke="#fdc882"></path><path d="M43.22194098494947,349.40354470163584L-69.52410388737917,487.8041676711291L89.92780999280512,528.0040085781366Z" fill="#fab57b" stroke="#fab57b"></path><path d="M43.22194098494947,349.40354470163584L89.92780999280512,528.0040085781366L237.97329554334283,320.630593970418Z" fill="#fdbe72" stroke="#fdbe72"></path><path d="M237.97329554334283,320.630593970418L89.92780999280512,528.0040085781366L278.42491982504725,571.7917965631932Z" fill="#f9a465" stroke="#f9a465"></path><path d="M237.97329554334283,320.630593970418L278.42491982504725,571.7917965631932L414.3922443129122,475.2796301431954Z" fill="#faa35a" stroke="#faa35a"></path><path d="M237.97329554334283,320.630593970418L414.3922443129122,475.2796301431954L381.34893452748656,338.4456621017307Z" fill="#fdb557" stroke="#fdb557"></path><path d="M381.34893452748656,338.4456621017307L414.3922443129122,475.2796301431954L490.7722152583301,375.02525922842324Z" fill="#fca749" stroke="#fca749"></path><path d="M490.7722152583301,375.02525922842324L414.3922443129122,475.2796301431954L530.7673124223948,529.8235308844596Z" fill="#fa903e" stroke="#fa903e"></path><path d="M490.7722152583301,375.02525922842324L530.7673124223948,529.8235308844596L623.9802238158882,525.3364446759224Z" fill="#f98432" stroke="#f98432"></path><path d="M490.7722152583301,375.02525922842324L623.9802238158882,525.3364446759224L637.151989415288,323.5942921601236Z" fill="#fc942f" stroke="#fc942f"></path><path d="M637.151989415288,323.5942921601236L623.9802238158882,525.3364446759224L833.618307095021,394.80135885067284Z" fill="#f58524" stroke="#f58524"></path><path d="M833.618307095021,394.80135885067284L623.9802238158882,525.3364446759224L830.4754190985113,503.8211787957698Z" fill="#ed6c1e" stroke="#ed6c1e"></path><path d="M833.618307095021,394.80135885067284L830.4754190985113,503.8211787957698L1018.2696159090847,350.1668150257319Z" fill="#e56c18" stroke="#e56c18"></path><path d="M1018.2696159090847,350.1668150257319L830.4754190985113,503.8211787957698L974.5958653651178,581.4161370601505Z" fill="#df5412" stroke="#df5412"></path><path d="M1018.2696159090847,350.1668150257319L974.5958653651178,581.4161370601505L1071.2447312660515,419.5270001795143Z" fill="#da5213" stroke="#da5213"></path><path d="M1071.2447312660515,419.5270001795143L974.5958653651178,581.4161370601505L1089.1643167845905,540.6072146538645Z" fill="#d53d11" stroke="#d53d11"></path><path d="M1071.2447312660515,419.5270001795143L1089.1643167845905,540.6072146538645L1295.894838804379,363.22211964055896Z" fill="#cf4514" stroke="#cf4514"></path><path d="M1295.894838804379,363.22211964055896L1089.1643167845905,540.6072146538645L1331.6204850375652,521.0200997907668Z" fill="#c73112" stroke="#c73112"></path><path d="M1295.894838804379,363.22211964055896L1331.6204850375652,521.0200997907668L1437.949637034908,521.6938915941864Z" fill="#be3313" stroke="#be3313"></path><path d="M1295.894838804379,363.22211964055896L1437.949637034908,521.6938915941864L1366.6938377078623,317.89332423359156Z" fill="#bf4616" stroke="#bf4616"></path><path d="M-69.52410388737917,487.8041676711291L-121.36443614959717,645.4962388984859L89.92780999280512,528.0040085781366Z" fill="#f79a7d" stroke="#f79a7d"></path><path d="M89.92780999280512,528.0040085781366L-121.36443614959717,645.4962388984859L116.15372305735946,631.432300619781Z" fill="#f58b74" stroke="#f58b74"></path><path d="M89.92780999280512,528.0040085781366L116.15372305735946,631.432300619781L278.42491982504725,571.7917965631932Z" fill="#f58a65" stroke="#f58a65"></path><path d="M278.42491982504725,571.7917965631932L116.15372305735946,631.432300619781L213.03466851823032,665.9165444131941Z" fill="#f47a5f" stroke="#f47a5f"></path><path d="M278.42491982504725,571.7917965631932L213.03466851823032,665.9165444131941L358.97794836200774,690.6926580704749Z" fill="#f37055" stroke="#f37055"></path><path d="M278.42491982504725,571.7917965631932L358.97794836200774,690.6926580704749L479.7109203133732,644.6051549725235Z" fill="#f36a48" stroke="#f36a48"></path><path d="M278.42491982504725,571.7917965631932L479.7109203133732,644.6051549725235L414.3922443129122,475.2796301431954Z" fill="#f67c48" stroke="#f67c48"></path><path d="M414.3922443129122,475.2796301431954L479.7109203133732,644.6051549725235L530.7673124223948,529.8235308844596Z" fill="#f6773b" stroke="#f6773b"></path><path d="M530.7673124223948,529.8235308844596L479.7109203133732,644.6051549725235L621.9885894656181,622.2745577897877Z" fill="#f5622d" stroke="#f5622d"></path><path d="M530.7673124223948,529.8235308844596L621.9885894656181,622.2745577897877L623.9802238158882,525.3364446759224Z" fill="#f66827" stroke="#f66827"></path><path d="M623.9802238158882,525.3364446759224L621.9885894656181,622.2745577897877L825.5501407384872,634.6870716568083Z" fill="#ef531d" stroke="#ef531d"></path><path d="M623.9802238158882,525.3364446759224L825.5501407384872,634.6870716568083L830.4754190985113,503.8211787957698Z" fill="#eb551a" stroke="#eb551a"></path><path d="M830.4754190985113,503.8211787957698L825.5501407384872,634.6870716568083L974.5958653651178,581.4161370601505Z" fill="#e14112" stroke="#e14112"></path><path d="M974.5958653651178,581.4161370601505L825.5501407384872,634.6870716568083L1008.1109683960676,677.0952829252928Z" fill="#d92a0c" stroke="#d92a0c"></path><path d="M974.5958653651178,581.4161370601505L1008.1109683960676,677.0952829252928L1089.1643167845905,540.6072146538645Z" fill="#d4280d" stroke="#d4280d"></path><path d="M1089.1643167845905,540.6072146538645L1008.1109683960676,677.0952829252928L1147.9009434208274,688.8448258861899Z" fill="#ce160b" stroke="#ce160b"></path><path d="M1089.1643167845905,540.6072146538645L1147.9009434208274,688.8448258861899L1320.5721899215132,619.7541770618409Z" fill="#c60f0c" stroke="#c60f0c"></path><path d="M1089.1643167845905,540.6072146538645L1320.5721899215132,619.7541770618409L1331.6204850375652,521.0200997907668Z" fill="#c3190f" stroke="#c3190f"></path><path d="M1331.6204850375652,521.0200997907668L1320.5721899215132,619.7541770618409L1373.643254628405,622.1572993788868Z" fill="#bb110d" stroke="#bb110d"></path><path d="M1331.6204850375652,521.0200997907668L1373.643254628405,622.1572993788868L1437.949637034908,521.6938915941864Z" fill="#b81a0f" stroke="#b81a0f"></path><path d="M1437.949637034908,521.6938915941864L1373.643254628405,622.1572993788868L1468.12421053648,785.8577393833548Z" fill="#b2010b" stroke="#b2010b"></path><path d="M-121.36443614959717,645.4962388984859L-55.35539888776839,853.6702741496265L116.15372305735946,631.432300619781Z" fill="#f18075" stroke="#f18075"></path><path d="M116.15372305735946,631.432300619781L-55.35539888776839,853.6702741496265L42.61257606558502,869.3675013352185Z" fill="#ee7e6b" stroke="#ee7e6b"></path><path d="M116.15372305735946,631.432300619781L42.61257606558502,869.3675013352185L220.93142883852124,788.5080919973552Z" fill="#ef7861" stroke="#ef7861"></path><path d="M116.15372305735946,631.432300619781L220.93142883852124,788.5080919973552L213.03466851823032,665.9165444131941Z" fill="#f1745e" stroke="#f1745e"></path><path d="M213.03466851823032,665.9165444131941L220.93142883852124,788.5080919973552L358.97794836200774,690.6926580704749Z" fill="#f06f54" stroke="#f06f54"></path><path d="M358.97794836200774,690.6926580704749L220.93142883852124,788.5080919973552L395.4705733526498,828.1765275355428Z" fill="#ee6b4a" stroke="#ee6b4a"></path><path d="M358.97794836200774,690.6926580704749L395.4705733526498,828.1765275355428L485.1040304917842,807.4647538550198Z" fill="#ee623b" stroke="#ee623b"></path><path d="M358.97794836200774,690.6926580704749L485.1040304917842,807.4647538550198L479.7109203133732,644.6051549725235Z" fill="#f05f3a" stroke="#f05f3a"></path><path d="M479.7109203133732,644.6051549725235L485.1040304917842,807.4647538550198L621.9885894656181,622.2745577897877Z" fill="#f1562c" stroke="#f1562c"></path><path d="M621.9885894656181,622.2745577897877L485.1040304917842,807.4647538550198L645.0814663711935,839.0305126458406Z" fill="#ef5020" stroke="#ef5020"></path><path d="M621.9885894656181,622.2745577897877L645.0814663711935,839.0305126458406L825.5501407384872,634.6870716568083Z" fill="#ea4318" stroke="#ea4318"></path><path d="M825.5501407384872,634.6870716568083L645.0814663711935,839.0305126458406L875.1901142857969,793.0560387019068Z" fill="#e13810" stroke="#e13810"></path><path d="M825.5501407384872,634.6870716568083L875.1901142857969,793.0560387019068L1008.1109683960676,677.0952829252928Z" fill="#da290b" stroke="#da290b"></path><path d="M1008.1109683960676,677.0952829252928L875.1901142857969,793.0560387019068L962.4123224895447,843.1457042880356Z" fill="#d32306" stroke="#d32306"></path><path d="M1008.1109683960676,677.0952829252928L962.4123224895447,843.1457042880356L1122.0866004098207,860.2798476722091Z" fill="#cc1905" stroke="#cc1905"></path><path d="M1008.1109683960676,677.0952829252928L1122.0866004098207,860.2798476722091L1147.9009434208274,688.8448258861899Z" fill="#c91107" stroke="#c91107"></path><path d="M1147.9009434208274,688.8448258861899L1122.0866004098207,860.2798476722091L1302.8172042779624,805.1434380188584Z" fill="#bf0505" stroke="#bf0505"></path><path d="M1147.9009434208274,688.8448258861899L1302.8172042779624,805.1434380188584L1320.5721899215132,619.7541770618409Z" fill="#bd0008" stroke="#bd0008"></path><path d="M1320.5721899215132,619.7541770618409L1302.8172042779624,805.1434380188584L1373.643254628405,622.1572993788868Z" fill="#b80009" stroke="#b80009"></path><path d="M1373.643254628405,622.1572993788868L1302.8172042779624,805.1434380188584L1468.12421053648,785.8577393833548Z" fill="#b20007" stroke="#b20007"></path><path d="M42.61257606558502,869.3675013352185L1122.0866004098207,860.2798476722091L645.0814663711935,839.0305126458406Z" fill="#eb4e19" stroke="#eb4e19"></path><path d="M42.61257606558502,869.3675013352185L645.0814663711935,839.0305126458406L395.4705733526498,828.1765275355428Z" fill="#ec6741" stroke="#ec6741"></path><path d="M42.61257606558502,869.3675013352185L395.4705733526498,828.1765275355428L220.93142883852124,788.5080919973552Z" fill="#ec7254" stroke="#ec7254"></path><path d="M395.4705733526498,828.1765275355428L645.0814663711935,839.0305126458406L485.1040304917842,807.4647538550198Z" fill="#ec582a" stroke="#ec582a"></path><path d="M645.0814663711935,839.0305126458406L1122.0866004098207,860.2798476722091L962.4123224895447,843.1457042880356Z" fill="#d42804" stroke="#d42804"></path><path d="M645.0814663711935,839.0305126458406L962.4123224895447,843.1457042880356L875.1901142857969,793.0560387019068Z" fill="#db330a" stroke="#db330a"></path><path d="M1122.0866004098207,860.2798476722091L1468.12421053648,785.8577393833548L1302.8172042779624,805.1434380188584Z" fill="#b60004" stroke="#b60004"></path></g><filter id="noise"><feTurbulence type="fractalNoise" in="fillPaint" fill="#F00" baseFrequency="0.7" numOctaves="10" stitchTiles="stitch"></feTurbulence><feComponentTransfer><feFuncR type="linear" slope="2" intercept="-.5"></feFuncR><feFuncG type="linear" slope="2" intercept="-.5"></feFuncG><feFuncB type="linear" slope="2" intercept="-.5"></feFuncB></feComponentTransfer><feColorMatrix type="matrix" values="0.3333 0.3333 0.3333 0 0 
 0.3333 0.3333 0.3333 0 0 
 0.3333 0.3333 0.3333 0 0 
 0 0 0 1 0"></feColorMatrix></filter><rect opacity="0.20000000000000007" width="100%" height="100%" filter="url(#noise)"></rect></svg>