<?xml version="1.0" encoding="utf-8"?>
<!-- Generator: Adobe Illustrator 16.0.0, SVG Export Plug-In . SVG Version: 6.00 Build 0)  -->
<!DOCTYPE svg PUBLIC "-//W3C//DTD SVG 1.1//EN" "http://www.w3.org/Graphics/SVG/1.1/DTD/svg11.dtd">
<svg version="1.1" id="Layer_1" xmlns="http://www.w3.org/2000/svg" xmlns:xlink="http://www.w3.org/1999/xlink" x="0px" y="0px"
	 width="240.94px" height="155.91px" viewBox="0 0 240.94 155.91" enable-background="new 0 0 240.94 155.91" xml:space="preserve">
<linearGradient id="SVGID_1_" gradientUnits="userSpaceOnUse" x1="120.4702" y1="155.9102" x2="120.4702" y2="4.882812e-04">
	<stop  offset="0" style="stop-color:#262626"/>
	<stop  offset="1" style="stop-color:#666666"/>
</linearGradient>
<rect display="none" fill="url(#SVGID_1_)" width="240.94" height="155.91"/>
<g>
	<line fill="#FFFFFF" stroke="#FFFFFF" stroke-width="2.5478" x1="14.35" y1="83.251" x2="14.35" y2="128.614"/>
	<line fill="#FFFFFF" stroke="#FFFFFF" stroke-width="2.5478" x1="120.38" y1="83.251" x2="120.38" y2="128.614"/>
	<g>
		<polygon fill="#FFFFFF" points="219.99,60.858 219.99,46.199 238.263,46.199 238.263,43.009 219.99,43.009 219.99,29.62 
			239.487,29.62 239.487,26.432 216.482,26.432 216.482,64.048 240.336,64.048 240.336,60.858 		"/>
		<polygon fill="#FFFFFF" points="99.764,26.432 96.258,26.432 96.258,64.048 117.294,64.048 117.294,60.858 99.764,60.858 		"/>
		<path fill="#FFFFFF" d="M139.662,26.432l-16.416,37.616h3.667l4.25-9.987h19.922l4.091,9.987h3.931l-15.831-37.616H139.662z
			 M132.544,50.872l8.763-20.615l8.505,20.615H132.544z"/>
		<polygon fill="#FFFFFF" points="197.358,59.371 197.249,59.371 174.354,26.432 169.838,26.432 169.838,64.048 173.344,64.048 
			173.344,31.107 173.451,31.107 196.349,64.048 200.862,64.048 200.862,26.432 197.358,26.432 		"/>
		<path fill="#FFFFFF" d="M57.209,45.238c1.135-0.353,2.168-0.891,3.109-1.622c0.938-0.722,1.717-1.672,2.336-2.841
			c0.622-1.169,0.929-2.657,0.929-4.464c0-1.626-0.265-3.007-0.795-4.141c-0.532-1.132-1.204-2.07-2.02-2.814
			c-0.815-0.744-1.734-1.309-2.762-1.702c-1.026-0.388-2.038-0.669-3.029-0.849c-0.99-0.179-1.911-0.283-2.762-0.318
			c-0.851-0.035-1.523-0.055-2.018-0.055h-9.883v3.165v0.022h10.945c1.84,0,3.338,0.234,4.49,0.691
			c1.148,0.46,2.045,1.028,2.682,1.699c0.637,0.674,1.071,1.401,1.303,2.177c0.229,0.781,0.343,1.487,0.343,2.124
			c0,0.642-0.115,1.349-0.343,2.125c-0.231,0.781-0.666,1.508-1.303,2.18c-0.637,0.677-1.534,1.244-2.682,1.702
			c-1.152,0.458-2.65,0.692-4.49,0.692H40.315v21.039h3.506v-17.85h6.535l10.573,17.85h3.985L53.969,45.985
			C54.997,45.84,56.076,45.597,57.209,45.238z"/>
		<polygon fill="#FFFFFF" points="-0.006,29.62 12.851,29.62 12.851,64.048 16.356,64.048 16.356,29.62 29.212,29.62 29.212,26.432 
			-0.006,26.432 		"/>
		<rect x="77.132" y="26.432" fill="#FFFFFF" width="3.506" height="37.616"/>
	</g>
	<line fill="#FFFFFF" stroke="#FFFFFF" stroke-width="2.5478" x1="228.38" y1="83.251" x2="228.38" y2="128.614"/>
</g>
</svg>
