<svg width="1235" height="651" xmlns="http://www.w3.org/2000/svg"><g><path d="M-82,-44L-121,645L-77,39Z" fill="#fff4b7" stroke="#fff4b7"></path><path d="M-82,-44L-77,39L53,-134Z" fill="#ffffee" stroke="#ffffee"></path><path d="M53,-134L-77,39L17,116Z" fill="#ffffe7" stroke="#ffffe7"></path><path d="M53,-134L17,116L259,-68Z" fill="#fff8dd" stroke="#fff8dd"></path><path d="M53,-134L259,-68L433,-59Z" fill="#fff0ce" stroke="#fff0ce"></path><path d="M53,-134L433,-59L699,-119Z" fill="#ffe3b9" stroke="#ffe3b9"></path><path d="M53,-134L699,-119L1091,-127Z" fill="#ffcd95" stroke="#ffcd95"></path><path d="M259,-68L17,116L258,123Z" fill="#fff4c6" stroke="#fff4c6"></path><path d="M259,-68L258,123L388,127Z" fill="#ffedb7" stroke="#ffedb7"></path><path d="M259,-68L388,127L433,-59Z" fill="#ffe7bd" stroke="#ffe7bd"></path><path d="M433,-59L388,127L502,130Z" fill="#ffde9f" stroke="#ffde9f"></path><path d="M433,-59L502,130L553,-27Z" fill="#ffd9a3" stroke="#ffd9a3"></path><path d="M433,-59L553,-27L699,-119Z" fill="#ffd29d" stroke="#ffd29d"></path><path d="M553,-27L502,130L644,31Z" fill="#ffd190" stroke="#ffd190"></path><path d="M553,-27L644,31L699,-119Z" fill="#feca93" stroke="#feca93"></path><path d="M699,-119L644,31L784,60Z" fill="#f7c18e" stroke="#f7c18e"></path><path d="M699,-119L784,60L849,-49Z" fill="#f2b88a" stroke="#f2b88a"></path><path d="M699,-119L849,-49L1091,-127Z" fill="#e9ab84" stroke="#e9ab84"></path><path d="M849,-49L784,60L924,55Z" fill="#ecaf7f" stroke="#ecaf7f"></path><path d="M849,-49L924,55L951,-18Z" fill="#e7a882" stroke="#e7a882"></path><path d="M849,-49L951,-18L1091,-127Z" fill="#e3a180" stroke="#e3a180"></path><path d="M951,-18L924,55L1100,57Z" fill="#e09e77" stroke="#e09e77"></path><path d="M951,-18L1100,57L1091,-127Z" fill="#dc9780" stroke="#dc9780"></path><path d="M1091,-127L1100,57L1216,51Z" fill="#d58c80" stroke="#d58c80"></path><path d="M1091,-127L1216,51L1261,-121Z" fill="#d08580" stroke="#d08580"></path><path d="M1261,-121L1216,51L1367,-54Z" fill="#c98080" stroke="#c98080"></path><path d="M1367,-54L1216,51L1468,81Z" fill="#c38078" stroke="#c38078"></path><path d="M-77,39L-121,645L-59,202Z" fill="#ffe198" stroke="#ffe198"></path><path d="M-77,39L-59,202L17,116Z" fill="#ffffce" stroke="#ffffce"></path><path d="M17,116L-59,202L108,196Z" fill="#fffcb9" stroke="#fffcb9"></path><path d="M17,116L108,196L258,123Z" fill="#fff7b5" stroke="#fff7b5"></path><path d="M258,123L108,196L257,271Z" fill="#ffeb9b" stroke="#ffeb9b"></path><path d="M258,123L257,271L417,197Z" fill="#ffe48f" stroke="#ffe48f"></path><path d="M258,123L417,197L388,127Z" fill="#ffe798" stroke="#ffe798"></path><path d="M388,127L417,197L502,130Z" fill="#ffdf8a" stroke="#ffdf8a"></path><path d="M502,130L417,197L512,282Z" fill="#ffd271" stroke="#ffd271"></path><path d="M502,130L512,282L639,262Z" fill="#ffc55d" stroke="#ffc55d"></path><path d="M502,130L639,262L644,31Z" fill="#ffcf72" stroke="#ffcf72"></path><path d="M644,31L639,262L784,60Z" fill="#f9c370" stroke="#f9c370"></path><path d="M784,60L639,262L804,253Z" fill="#f5b656" stroke="#f5b656"></path><path d="M784,60L804,253L942,171Z" fill="#ecb05b" stroke="#ecb05b"></path><path d="M784,60L942,171L924,55Z" fill="#e9ab69" stroke="#e9ab69"></path><path d="M924,55L942,171L1100,57Z" fill="#e19e66" stroke="#e19e66"></path><path d="M1100,57L942,171L1069,272Z" fill="#dd9753" stroke="#dd9753"></path><path d="M1100,57L1069,272L1216,51Z" fill="#d58c5e" stroke="#d58c5e"></path><path d="M1216,51L1069,272L1299,232Z" fill="#d07f4c" stroke="#d07f4c"></path><path d="M1216,51L1299,232L1378,195Z" fill="#c88055" stroke="#c88055"></path><path d="M1216,51L1378,195L1468,81Z" fill="#c38063" stroke="#c38063"></path><path d="M1468,81L1378,195L1366,317Z" fill="#bf7848" stroke="#bf7848"></path><path d="M1468,81L1366,317L1437,521Z" fill="#bd5f20" stroke="#bd5f20"></path><path d="M1468,81L1437,521L1468,785Z" fill="#b63413" stroke="#b63413"></path><path d="M-59,202L-121,645L-69,487Z" fill="#fbb987" stroke="#fbb987"></path><path d="M-59,202L-69,487L-24,338Z" fill="#ffd688" stroke="#ffd688"></path><path d="M-59,202L-24,338L43,349Z" fill="#ffe18f" stroke="#ffe18f"></path><path d="M-59,202L43,349L108,196Z" fill="#ffea9b" stroke="#ffea9b"></path><path d="M108,196L43,349L237,320Z" fill="#ffdb82" stroke="#ffdb82"></path><path d="M108,196L237,320L257,271Z" fill="#ffdc83" stroke="#ffdc83"></path><path d="M257,271L237,320L381,338Z" fill="#ffcc67" stroke="#ffcc67"></path><path d="M257,271L381,338L417,197Z" fill="#ffd06e" stroke="#ffd06e"></path><path d="M417,197L381,338L512,282Z" fill="#ffc65e" stroke="#ffc65e"></path><path d="M512,282L381,338L490,375Z" fill="#ffb646" stroke="#ffb646"></path><path d="M512,282L490,375L637,323Z" fill="#ffaf39" stroke="#ffaf39"></path><path d="M512,282L637,323L639,262Z" fill="#ffb23e" stroke="#ffb23e"></path><path d="M639,262L637,323L804,253Z" fill="#f9a839" stroke="#f9a839"></path><path d="M804,253L637,323L833,394Z" fill="#f39725" stroke="#f39725"></path><path d="M804,253L833,394L1018,350Z" fill="#e9841c" stroke="#e9841c"></path><path d="M804,253L1018,350L942,171Z" fill="#e69133" stroke="#e69133"></path><path d="M942,171L1018,350L1069,272Z" fill="#df842f" stroke="#df842f"></path><path d="M1069,272L1018,350L1071,419Z" fill="#da6b18" stroke="#da6b18"></path><path d="M1069,272L1071,419L1295,363Z" fill="#d35e18" stroke="#d35e18"></path><path d="M1069,272L1295,363L1299,232Z" fill="#ce6426" stroke="#ce6426"></path><path d="M1299,232L1295,363L1366,317Z" fill="#c66020" stroke="#c66020"></path><path d="M1299,232L1366,317L1378,195Z" fill="#c46c35" stroke="#c46c35"></path><path d="M-24,338L-69,487L43,349Z" fill="#fdc882" stroke="#fdc882"></path><path d="M43,349L-69,487L89,528Z" fill="#fab57b" stroke="#fab57b"></path><path d="M43,349L89,528L237,320Z" fill="#fdbe72" stroke="#fdbe72"></path><path d="M237,320L89,528L278,571Z" fill="#f9a465" stroke="#f9a465"></path><path d="M237,320L278,571L414,475Z" fill="#faa35a" stroke="#faa35a"></path><path d="M237,320L414,475L381,338Z" fill="#fdb557" stroke="#fdb557"></path><path d="M381,338L414,475L490,375Z" fill="#fca749" stroke="#fca749"></path><path d="M490,375L414,475L530,529Z" fill="#fa903e" stroke="#fa903e"></path><path d="M490,375L530,529L623,525Z" fill="#f98432" stroke="#f98432"></path><path d="M490,375L623,525L637,323Z" fill="#fc942f" stroke="#fc942f"></path><path d="M637,323L623,525L833,394Z" fill="#f58524" stroke="#f58524"></path><path d="M833,394L623,525L830,503Z" fill="#ed6c1e" stroke="#ed6c1e"></path><path d="M833,394L830,503L1018,350Z" fill="#e56c18" stroke="#e56c18"></path><path d="M1018,350L830,503L974,581Z" fill="#df5412" stroke="#df5412"></path><path d="M1018,350L974,581L1071,419Z" fill="#da5213" stroke="#da5213"></path><path d="M1071,419L974,581L1089,540Z" fill="#d53d11" stroke="#d53d11"></path><path d="M1071,419L1089,540L1295,363Z" fill="#cf4514" stroke="#cf4514"></path><path d="M1295,363L1089,540L1331,521Z" fill="#c73112" stroke="#c73112"></path><path d="M1295,363L1331,521L1437,521Z" fill="#be3313" stroke="#be3313"></path><path d="M1295,363L1437,521L1366,317Z" fill="#bf4616" stroke="#bf4616"></path><path d="M-69,487L-121,645L89,528Z" fill="#f79a7d" stroke="#f79a7d"></path><path d="M89,528L-121,645L116,631Z" fill="#f58b74" stroke="#f58b74"></path><path d="M89,528L116,631L278,571Z" fill="#f58a65" stroke="#f58a65"></path><path d="M278,571L116,631L213,665Z" fill="#f47a5f" stroke="#f47a5f"></path><path d="M278,571L213,665L358,690Z" fill="#f37055" stroke="#f37055"></path><path d="M278,571L358,690L479,644Z" fill="#f36a48" stroke="#f36a48"></path><path d="M278,571L479,644L414,475Z" fill="#f67c48" stroke="#f67c48"></path><path d="M414,475L479,644L530,529Z" fill="#f6773b" stroke="#f6773b"></path><path d="M530,529L479,644L621,622Z" fill="#f5622d" stroke="#f5622d"></path><path d="M530,529L621,622L623,525Z" fill="#f66827" stroke="#f66827"></path><path d="M623,525L621,622L825,634Z" fill="#ef531d" stroke="#ef531d"></path><path d="M623,525L825,634L830,503Z" fill="#eb551a" stroke="#eb551a"></path><path d="M830,503L825,634L974,581Z" fill="#e14112" stroke="#e14112"></path><path d="M974,581L825,634L1008,677Z" fill="#d92a0c" stroke="#d92a0c"></path><path d="M974,581L1008,677L1089,540Z" fill="#d4280d" stroke="#d4280d"></path><path d="M1089,540L1008,677L1147,688Z" fill="#ce160b" stroke="#ce160b"></path><path d="M1089,540L1147,688L1320,619Z" fill="#c60f0c" stroke="#c60f0c"></path><path d="M1089,540L1320,619L1331,521Z" fill="#c3190f" stroke="#c3190f"></path><path d="M1331,521L1320,619L1373,622Z" fill="#bb110d" stroke="#bb110d"></path><path d="M1331,521L1373,622L1437,521Z" fill="#b81a0f" stroke="#b81a0f"></path><path d="M1437,521L1373,622L1468,785Z" fill="#b2010b" stroke="#b2010b"></path><path d="M-121,645L-55,853L116,631Z" fill="#f18075" stroke="#f18075"></path><path d="M116,631L-55,853L42,869Z" fill="#ee7e6b" stroke="#ee7e6b"></path><path d="M116,631L42,869L220,788Z" fill="#ef7861" stroke="#ef7861"></path><path d="M116,631L220,788L213,665Z" fill="#f1745e" stroke="#f1745e"></path><path d="M213,665L220,788L358,690Z" fill="#f06f54" stroke="#f06f54"></path><path d="M358,690L220,788L395,828Z" fill="#ee6b4a" stroke="#ee6b4a"></path><path d="M358,690L395,828L485,807Z" fill="#ee623b" stroke="#ee623b"></path><path d="M358,690L485,807L479,644Z" fill="#f05f3a" stroke="#f05f3a"></path><path d="M479,644L485,807L621,622Z" fill="#f1562c" stroke="#f1562c"></path><path d="M621,622L485,807L645,839Z" fill="#ef5020" stroke="#ef5020"></path><path d="M621,622L645,839L825,634Z" fill="#ea4318" stroke="#ea4318"></path><path d="M825,634L645,839L875,793Z" fill="#e13810" stroke="#e13810"></path><path d="M825,634L875,793L1008,677Z" fill="#da290b" stroke="#da290b"></path><path d="M1008,677L875,793L962,843Z" fill="#d32306" stroke="#d32306"></path><path d="M1008,677L962,843L1122,860Z" fill="#cc1905" stroke="#cc1905"></path><path d="M1008,677L1122,860L1147,688Z" fill="#c91107" stroke="#c91107"></path><path d="M1147,688L1122,860L1302,805Z" fill="#bf0505" stroke="#bf0505"></path><path d="M1147,688L1302,805L1320,619Z" fill="#bd0008" stroke="#bd0008"></path><path d="M1320,619L1302,805L1373,622Z" fill="#b80009" stroke="#b80009"></path><path d="M1373,622L1302,805L1468,785Z" fill="#b20007" stroke="#b20007"></path><path d="M42,869L1122,860L645,839Z" fill="#eb4e19" stroke="#eb4e19"></path><path d="M42,869L645,839L395,828Z" fill="#ec6741" stroke="#ec6741"></path><path d="M42,869L395,828L220,788Z" fill="#ec7254" stroke="#ec7254"></path><path d="M395,828L645,839L485,807Z" fill="#ec582a" stroke="#ec582a"></path><path d="M645,839L1122,860L962,843Z" fill="#d42804" stroke="#d42804"></path><path d="M645,839L962,843L875,793Z" fill="#db330a" stroke="#db330a"></path><path d="M1122,860L1468,785L1302,805Z" fill="#b60004" stroke="#b60004"></path></g><filter id="noise"><feTurbulence type="fractalNoise" in="fillPaint" fill="#F00" baseFrequency="0" numOctaves="10" stitchTiles="stitch"></feTurbulence><feComponentTransfer><feFuncR type="linear" slope="2" intercept="-"></feFuncR><feFuncG type="linear" slope="2" intercept="-"></feFuncG><feFuncB type="linear" slope="2" intercept="-"></feFuncB></feComponentTransfer><feColorMatrix type="matrix" values="0 0 0 0 0
 0 0 0 0 0
 0 0 0 0 0
 0 0 0 1 0"></feColorMatrix></filter><rect opacity="0" width="100%" height="100%" filter="url(#noise)"></rect></svg>
